<svg width="470" height="12" viewBox="0 0 470 12" fill="none" xmlns="http://www.w3.org/2000/svg">
<path d="M470 1.77181C467.607 1.69128 465.414 1.69128 463.021 1.69128C460.628 1.69128 458.434 1.61074 456.042 1.5302C450.857 1.36913 445.872 1.12752 440.687 0.966443C430.916 0.644295 420.946 0.322148 411.175 0.241611C402.202 0.0805369 393.029 0 384.056 0C381.663 0 379.27 0 377.077 0C368.104 0.0805369 359.13 0.0805369 350.157 0.161074C329.219 0.402685 308.082 0.644295 287.145 1.04698C266.606 1.44966 246.067 1.85235 225.728 2.33557C215.757 2.57718 205.588 2.81879 195.617 3.0604C184.65 3.46309 173.683 3.7047 162.915 4.02685C140.382 4.75168 118.048 5.39597 95.5155 6.12081C75.9737 6.7651 56.6313 7.65101 37.2889 8.77852C24.9258 9.58389 12.3632 10.4698 0 11.3557C14.1578 11.7584 28.5151 11.9195 42.8723 12C52.2444 12 61.6165 11.9195 70.7891 11.8389C76.7713 11.7584 82.7535 11.5973 88.9351 11.4362C92.7238 11.3557 96.3131 11.1946 99.9024 11.0336C109.673 10.6309 119.644 10.3087 129.415 9.90604C140.781 9.50336 151.947 9.02013 163.314 8.61745C174.879 8.21476 186.644 7.81208 198.21 7.4094C208.579 7.08725 219.147 6.7651 229.716 6.44295C239.885 6.12081 250.255 5.87919 260.424 5.63758C270.793 5.39597 280.963 5.15436 291.332 4.91275C301.901 4.67114 312.27 4.5906 322.838 4.42953C341.981 4.10738 361.124 4.02685 380.467 3.94631C391.235 3.94631 401.803 3.78523 412.571 3.62416C423.14 3.46309 433.708 3.30201 444.077 3.0604C448.265 2.97987 452.652 2.89933 456.839 2.73826C458.833 2.65772 461.027 2.57718 463.021 2.41611C464.815 2.25503 466.61 2.01342 468.405 1.93289C469.003 1.85235 469.402 1.77181 470 1.77181Z" fill="url(#paint0_linear_761_34)"/>
<defs>
<linearGradient id="paint0_linear_761_34" x1="59.4937" y1="12" x2="69.5017" y2="-53.1054" gradientUnits="userSpaceOnUse">
<stop stop-color="#CE1BFB"/>
<stop offset="1" stop-color="#35E6CC"/>
</linearGradient>
</defs>
</svg>
