<svg width="1600" height="1144" fill="none" xmlns="http://www.w3.org/2000/svg"><mask id="b" fill="#fff"><path d="M0 38.4c0-13.441 0-20.162 2.616-25.296A24 24 0 0 1 13.104 2.616C18.238 0 24.96 0 38.4 0h1523.2c13.44 0 20.16 0 25.3 2.616a24.007 24.007 0 0 1 10.48 10.488C1600 18.238 1600 24.96 1600 38.4V1144H0V38.4Z"/></mask><path d="M-1 24C-1 10.193 10.193-1 24-1h1552c13.81 0 25 11.193 25 25h-2c0-12.703-10.3-23-23-23H24C11.297 1 1 11.297 1 24h-2Zm1601 1120H0h1600Zm-1601 0V24C-1 10.193 10.193-1 24-1v2C11.297 1 1 11.297 1 24v1120h-2ZM1576-1c13.81 0 25 11.193 25 25v1120h-2V24c0-12.703-10.3-23-23-23v-2Z" fill="url(#a)" fill-opacity=".16" mask="url(#b)"/><defs><linearGradient id="a" x1="217.391" y1="-50.05" x2="567.309" y2="470.095" gradientUnits="userSpaceOnUse"><stop stop-color="#fff"/><stop offset="1" stop-color="#fff" stop-opacity="0"/></linearGradient></defs></svg>